<svg width="256" height="256" viewBox="0 0 256 256" fill="none" xmlns="http://www.w3.org/2000/svg">
<rect width="256" height="256" rx="60" fill="#1E293B"/>
<path fill-rule="evenodd" clip-rule="evenodd" d="M118.321 43.9392C106.732 51.6069 88.7481 59.7619 76.7201 62.8025C67.8308 65.0502 54.8068 67.5617 52.0432 67.5617C51.1544 67.5617 50.9066 67.7731 50.9023 68.5365C50.8993 69.0725 50.701 73.8005 50.4618 79.0428C49.9529 90.2068 49.8384 110.537 50.2501 116.736C50.92 126.823 53.0929 138.322 56.1452 147.929C58.0471 153.916 63.093 164.492 66.3432 169.303C74.557 181.463 89.3706 195.519 102.857 203.951C107.662 206.955 118.469 212.983 120.361 213.714C120.965 213.947 121.031 209.241 121.031 165.896V117.819H101.672H82.3127L82.3217 120.093C82.3265 121.344 82.6108 124.707 82.9537 127.567C83.2961 130.426 83.5826 132.912 83.59 133.091C83.5973 133.27 88.2555 133.416 93.9415 133.416C101.816 133.416 104.329 133.545 104.486 133.957C104.599 134.255 104.641 145.784 104.58 159.577L104.468 184.654L99.7359 180.742C83.0621 166.957 73.839 152.528 69.6359 133.654C67.7017 124.969 67.2642 118.74 67.2599 99.8059L67.2556 82.4434L72.9558 81.2398C84.1815 78.8695 95.208 74.8979 106.189 69.2696C112.138 66.2208 118.88 62.377 120.717 60.9876C121.411 60.4629 121.468 59.5899 121.363 51.2074L121.246 42.0035L118.321 43.9392ZM132.528 59.005L132.747 76.0101L130.808 77.6166C126.93 80.8291 125.94 85.5528 128.344 89.3702C129.053 90.4971 130.312 91.8219 131.14 92.3141L132.646 93.2092V105.855V118.501L130.71 120.131C126.048 124.056 125.898 129.028 130.314 133.268L132.643 135.504L132.673 148.082L132.703 160.661L130.886 162.31C126.408 166.378 126.44 172.123 130.963 176.023L132.646 177.474V195.737C132.646 208.763 132.782 214 133.121 214C134.239 214 146.966 207.044 152.365 203.482C176.923 187.282 191.957 168.261 199.355 144.032C200.358 140.746 202.124 131.818 203.02 125.494C203.977 118.746 204.324 93.1728 203.65 79.0428C203.366 73.0856 202.997 68.0695 202.831 67.8958C202.665 67.7216 200.986 67.3672 199.1 67.1077C193.415 66.3252 180.948 63.6772 175.456 62.085C164.573 58.9305 149.843 52.2433 138.056 45.1064C135.234 43.3981 132.786 42 132.617 42C132.447 42 132.407 49.6521 132.528 59.005ZM143.258 66.547C153.203 72.5025 169.343 78.646 181.474 81.093L186.637 82.1345V102.251C186.637 123.621 186.432 126.442 184.238 135.227C181.19 147.433 173.907 161.242 165.429 170.892C160.29 176.74 152.434 183.437 144.692 188.566L139.745 191.844L139.626 184.621C139.541 179.409 139.647 177.351 140.01 177.229C141.191 176.833 143.823 173.965 144.276 172.58C144.547 171.753 144.704 169.91 144.623 168.484L144.477 165.892L151.666 158.801L158.855 151.709L161.583 151.93C163.793 152.108 164.645 151.979 166.068 151.248C169.709 149.377 171.558 145.345 170.753 141.028C170.424 139.261 168.405 136.722 166.569 135.765L165.342 135.127V126.508V117.889L166.899 116.92C167.756 116.386 169.015 115.065 169.696 113.984C171.96 110.388 171.169 105.256 167.929 102.509C165.814 100.718 162.011 99.9735 159.63 100.885C158.789 101.207 158.35 101.064 157.292 100.127C156.576 99.4918 153.346 96.6479 150.113 93.8071L144.236 88.6419L144.52 86.1109C144.886 82.8524 143.963 80.304 141.654 78.204C140.721 77.3549 139.764 76.66 139.528 76.66C139.264 76.66 139.099 74.3377 139.099 70.5945C139.099 67.2038 139.274 64.529 139.494 64.529C139.711 64.529 141.405 65.4371 143.258 66.547ZM146.877 99.7833C150.762 103.446 153.882 106.697 153.808 107.008C152.892 110.908 154.834 115.491 158.136 117.221L159.319 117.841V126.452V135.063L157.839 135.942C155.545 137.305 154.024 139.963 153.807 142.987C153.694 144.554 153.815 145.783 154.119 146.151C154.518 146.635 153.579 147.799 149.331 152.089C146.424 155.023 143.079 158.272 141.896 159.309L139.745 161.194L139.473 159.977C139.324 159.308 139.178 153.476 139.15 147.017L139.099 135.274L141.04 134.039C143.335 132.578 144.704 130.078 144.76 127.244C144.821 124.2 143.994 122.379 141.544 120.16L139.314 118.141L139.225 105.633C139.176 98.7526 139.288 93.1234 139.474 93.1234C139.66 93.1234 142.991 96.1202 146.877 99.7833Z" fill="#06B6D4"/>
</svg>
